<?xml version="1.0" encoding="UTF-8" standalone="no"?>
<!-- Generator: Adobe Illustrator 23.1.1, SVG Export Plug-In . SVG Version: 6.00 Build 0)  -->

<svg
   version="1.1"
   id="Layer_1"
   x="0px"
   y="0px"
   viewBox="0 0 299.99999 300"
   xml:space="preserve"
   sodipodi:docname="dioptra.svg"
   width="300"
   height="300"
   inkscape:version="1.4.2 (ebf0e940, 2025-05-08)"
   xmlns:inkscape="http://www.inkscape.org/namespaces/inkscape"
   xmlns:sodipodi="http://sodipodi.sourceforge.net/DTD/sodipodi-0.dtd"
   xmlns="http://www.w3.org/2000/svg"
   xmlns:svg="http://www.w3.org/2000/svg"><defs
   id="defs2" /><sodipodi:namedview
   id="namedview2"
   pagecolor="#ffffff"
   bordercolor="#000000"
   borderopacity="0.25"
   inkscape:showpageshadow="2"
   inkscape:pageopacity="0.0"
   inkscape:pagecheckerboard="0"
   inkscape:deskcolor="#d1d1d1"
   inkscape:zoom="0.8"
   inkscape:cx="125"
   inkscape:cy="141.875"
   inkscape:window-width="1496"
   inkscape:window-height="916"
   inkscape:window-x="0"
   inkscape:window-y="38"
   inkscape:window-maximized="0"
   inkscape:current-layer="Layer_1" />
<g
   id="g2"
   transform="translate(-270.85,-147.3)">
	<path
   d="m 404.7,327.8 c -1.4,0 -2.7,-0.1 -4,-0.1 v 36.4 c 55.7,0 101,-44.2 102.9,-99.3 h -32.3 c -1.8,35.1 -30.9,63 -66.6,63 m -66.6,-63.1 c 1.8,33.8 28.9,60.9 62.6,62.9 v -62.9 z m 62.6,-7.4 v -62.9 c -33.8,2 -60.8,29.1 -62.6,62.9 z m 103,0 C 501.8,202.1 456.4,158 400.8,158 v 36.4 c 1.3,-0.1 2.7,-0.1 4,-0.1 35.6,0 64.7,27.9 66.7,63.1 h 32.2 z"
   id="path1" />
	<path
   d="m 517.6,422.1 6.9,-16.2 7,16.2 z m 20,13.9 h 7.2 L 528,398.9 h -6.8 L 504.5,436 h 7.1 l 3.7,-8.6 h 18.5 z m -42.4,-23.9 c 0,4.7 -3.1,7.4 -9.2,7.4 h -8.1 v -14.8 h 8.1 c 6,0.1 9.2,2.8 9.2,7.4 m 7.5,23.9 -8.5,-12.2 c 5,-2 7.9,-6.1 7.9,-11.7 0,-8.2 -6,-13.2 -15.8,-13.2 H 471 V 436 h 6.9 v -10.8 h 8.4 c 0.5,0 1,0 1.4,-0.1 l 7.6,10.9 z m -56,0 h 6.9 v -31.3 h 12.3 v -5.8 h -31.5 v 5.8 h 12.3 z m -29.5,-16.5 h -8.1 v -14.7 h 8.1 c 6,0 9.2,2.7 9.2,7.4 0,4.7 -3.2,7.3 -9.2,7.3 m 0.3,-20.6 H 402.2 V 436 h 6.9 v -10.7 h 8.4 c 9.8,0 15.8,-5 15.8,-13.2 0,-8.2 -6,-13.2 -15.8,-13.2 M 375,430.5 c -7.5,0 -13,-5.5 -13,-13 0,-7.6 5.6,-13 13,-13 7.5,0 13,5.5 13,13 0,7.6 -5.6,13 -13,13 m 0,6.1 c 11.5,0 20,-8.1 20,-19.1 0,-11 -8.5,-19.1 -20,-19.1 -11.5,0 -20,8.1 -20,19.1 0,11 8.5,19.1 20,19.1 M 340.7,436 h 6.9 v -37.1 h -6.9 z m -36.9,-5.8 v -25.4 h 9 c 8.3,0 13.6,5 13.6,12.7 0,7.7 -5.4,12.7 -13.6,12.7 z m -6.9,5.8 h 16.2 c 12,0 20.2,-7.4 20.2,-18.6 0,-11.1 -8.2,-18.5 -20.2,-18.5 h -16.2 z"
   id="path2" />
</g>
</svg>
