<?xml version="1.0" encoding="utf-8"?>
<!-- Generator: Adobe Illustrator 23.1.1, SVG Export Plug-In . SVG Version: 6.00 Build 0)  -->
<svg version="1.1" id="Layer_1" xmlns="http://www.w3.org/2000/svg" xmlns:xlink="http://www.w3.org/1999/xlink" x="0px" y="0px"
	 viewBox="0 0 841.9 595.3" style="enable-background:new 0 0 841.9 595.3;" xml:space="preserve">
<g>
	<path d="M404.7,327.8c-1.4,0-2.7-0.1-4-0.1v36.4c55.7,0,101-44.2,102.9-99.3h-32.3C469.5,299.9,440.4,327.8,404.7,327.8
		 M338.1,264.7c1.8,33.8,28.9,60.9,62.6,62.9v-62.9H338.1z M400.7,257.3v-62.9c-33.8,2-60.8,29.1-62.6,62.9H400.7z M503.7,257.3
		c-1.9-55.2-47.3-99.3-102.9-99.3v36.4c1.3-0.1,2.7-0.1,4-0.1c35.6,0,64.7,27.9,66.7,63.1H503.7z"/>
	<path d="M517.6,422.1l6.9-16.2l7,16.2H517.6z M537.6,436h7.2L528,398.9h-6.8L504.5,436h7.1l3.7-8.6h18.5L537.6,436z M495.2,412.1
		c0,4.7-3.1,7.4-9.2,7.4h-8.1v-14.8h8.1C492,404.8,495.2,407.5,495.2,412.1 M502.7,436l-8.5-12.2c5-2,7.9-6.1,7.9-11.7
		c0-8.2-6-13.2-15.8-13.2H471V436h6.9v-10.8h8.4c0.5,0,1,0,1.4-0.1l7.6,10.9H502.7z M446.7,436h6.9v-31.3h12.3v-5.8h-31.5v5.8h12.3
		V436z M417.2,419.5h-8.1v-14.7h8.1c6,0,9.2,2.7,9.2,7.4S423.2,419.5,417.2,419.5 M417.5,398.9h-15.3V436h6.9v-10.7h8.4
		c9.8,0,15.8-5,15.8-13.2C433.3,403.9,427.3,398.9,417.5,398.9 M375,430.5c-7.5,0-13-5.5-13-13c0-7.6,5.6-13,13-13
		c7.5,0,13,5.5,13,13C388,425.1,382.4,430.5,375,430.5 M375,436.6c11.5,0,20-8.1,20-19.1c0-11-8.5-19.1-20-19.1
		c-11.5,0-20,8.1-20,19.1C355,428.5,363.5,436.6,375,436.6 M340.7,436h6.9v-37.1h-6.9V436z M303.8,430.2v-25.4h9
		c8.3,0,13.6,5,13.6,12.7s-5.4,12.7-13.6,12.7H303.8z M296.9,436h16.2c12,0,20.2-7.4,20.2-18.6c0-11.1-8.2-18.5-20.2-18.5h-16.2V436
		z"/>
</g>
</svg>
