<?xml version="1.0" encoding="UTF-8" standalone="no"?>
<!-- Created with Inkscape (http://www.inkscape.org/) -->

<svg
   version="1.1"
   id="svg1"
   width="518.18665"
   height="208.65334"
   viewBox="0 0 518.18665 208.65334"
   xmlns="http://www.w3.org/2000/svg"
   xmlns:svg="http://www.w3.org/2000/svg">
  <defs
     id="defs1" />
  <g
     id="g1">
    <g
       id="group-R5">
      <path
         id="path2"
         d="m 445.789,1075.17 h 52.391 v 114.87 c 0,14.47 -11.735,26.19 -26.196,26.19 -14.457,0 -26.195,-11.72 -26.195,-26.19 v -114.87"
         style="fill:#1a2a68;fill-opacity:1;fill-rule:nonzero;stroke:none"
         transform="matrix(0.13333333,0,0,-0.13333333,0,208.65333)" />
      <path
         id="path3"
         d="m 335.492,1075.17 h 52.371 v 114.87 c 0,14.47 -11.715,26.19 -26.195,26.19 -14.457,0 -26.176,-11.72 -26.176,-26.19 v -114.87"
         style="fill:#1a2a68;fill-opacity:1;fill-rule:nonzero;stroke:none"
         transform="matrix(0.13333333,0,0,-0.13333333,0,208.65333)" />
      <path
         id="path4"
         d="m 556.094,1075.17 h 52.367 v 114.87 c 0,14.47 -11.719,26.19 -26.176,26.19 -14.461,0 -26.191,-11.72 -26.191,-26.19 v -114.87"
         style="fill:#1a2a68;fill-opacity:1;fill-rule:nonzero;stroke:none"
         transform="matrix(0.13333333,0,0,-0.13333333,0,208.65333)" />
      <path
         id="path5"
         d="m 485.078,1498.14 c 34.86,-6.17 47.953,-36.82 47.953,-58.2 v -44.6 h 31.953 v -25.3 c 83.496,-39.24 142.727,-126.75 142.727,-216.5 0,-0.59 -0.02,-1.13 -0.02,-1.72 v -76.92 h 193.168 v 78.64 c -4.101,253.44 -184.488,408.17 -422.636,411.3 l 6.855,-66.7"
         style="fill:#1a2a68;fill-opacity:1;fill-rule:nonzero;stroke:none"
         transform="matrix(0.13333333,0,0,-0.13333333,0,208.65333)" />
      <path
         id="path6"
         d="m 448.551,1441.37 v -46.03 h 47.023 v 46.03 c 0,12.98 -10.519,23.52 -23.5,23.52 -13.015,0 -23.523,-10.54 -23.523,-23.52"
         style="fill:#1a2a68;fill-opacity:1;fill-rule:nonzero;stroke:none"
         transform="matrix(0.13333333,0,0,-0.13333333,0,208.65333)" />
      <path
         id="path7"
         d="m 507.48,951.402 c -199.363,50.938 -273.875,94.398 -273.875,220.758 0,90.7 60.493,168.7 145.379,202.08 v 21.1 h 32.106 v 44.62 c 0,21.64 13.445,52.8 49.348,58.4 l 6.503,66.54 C 226.898,1563.06 22.625,1396.32 32.4219,1172.16 43.3789,921.273 318.434,850.957 466.645,819.469 583.242,794.723 863.82,729.039 933.34,531.398 c 0,0 26.027,327.043 -425.86,420.004"
         style="fill:#1a2a68;fill-opacity:1;fill-rule:nonzero;stroke:none"
         transform="matrix(0.13333333,0,0,-0.13333333,0,208.65333)" />
      <path
         id="path8"
         d="m 441.195,603.102 c 201.02,-61.282 252.496,-135.813 252.496,-241.704 0,-161.41 -125.011,-227.707 -281.91,-227.707 -150.254,0 -279.449,70.047 -365.3513,160.868 C 46,295 14.4297,228.27 14.4297,228.27 77.6367,108.781 255.332,0.0195313 453.633,0.0195313 h 0.25 c 0.082,-0.0078125 0.164,-0.0078125 0.246,-0.0078125 V 0.0195313 C 708.133,-2.10938 924.141,116.801 924.141,356.309 924.141,613.441 643.945,714.086 488.406,748.648 366.055,775.855 57.3047,857.125 2.37891,1029.66 c 0,0 -61.28911,-299.078 438.81609,-426.558"
         style="fill:#1a2a68;fill-opacity:1;fill-rule:nonzero;stroke:none"
         transform="matrix(0.13333333,0,0,-0.13333333,0,208.65333)" />
      <path
         id="path9"
         d="m 1213.8,929.652 c 0,0 34.38,-32.136 78.98,-32.136 24.1,0 45.96,12 45.96,36.847 0,54.414 -149.47,44.989 -149.47,138.407 0,50.57 45.53,88.26 106.2,88.26 62.46,0 94.6,-32.57 94.6,-32.57 l -24.98,-44.98 c 0,0 -30.34,26.56 -70.07,26.56 -26.77,0 -47.76,-14.99 -47.76,-36.42 0,-53.98 149.05,-40.71 149.05,-137.96 0,-48.418 -38.38,-89.137 -104.41,-89.137 -70.5,0 -109.32,41.579 -109.32,41.579 l 31.22,41.55"
         style="fill:#ef2e32;fill-opacity:1;fill-rule:nonzero;stroke:none"
         transform="matrix(0.13333333,0,0,-0.13333333,0,208.65333)" />
      <path
         id="path10"
         d="m 1639.91,1161.03 c 93.27,0 163.77,-68.14 163.77,-155.1 0,-89.559 -70.5,-159.407 -163.77,-159.407 -93.26,0 -163.76,69.848 -163.76,159.407 0,86.96 70.5,155.1 163.76,155.1 m 0,-263.944 c 58.01,0 104.43,46.277 104.43,108.844 0,59.99 -46.42,104.54 -104.43,104.54 -58,0 -104.41,-44.55 -104.41,-104.54 0,-62.567 46.41,-108.844 104.41,-108.844"
         style="fill:#ef2e32;fill-opacity:1;fill-rule:nonzero;stroke:none"
         transform="matrix(0.13333333,0,0,-0.13333333,0,208.65333)" />
      <path
         id="path11"
         d="m 1896.18,1155.88 h 102.16 c 34.38,0 49.98,-2.57 63.83,-8.56 31.67,-13.71 51.76,-42.84 51.76,-83.13 0,-36.42 -20.09,-70.264 -53.54,-83.131 v -0.844 c 0,0 4.46,-4.281 10.71,-14.988 l 65.15,-113.563 h -64.27 l -62.91,113.563 h -55.33 V 851.664 h -57.56 z M 2005.5,1013.2 c 30.79,0 49.96,17.58 49.96,48 0,29.13 -12.93,47.12 -58,47.12 h -43.72 v -95.12 h 51.76"
         style="fill:#ef2e32;fill-opacity:1;fill-rule:nonzero;stroke:none"
         transform="matrix(0.13333333,0,0,-0.13333333,0,208.65333)" />
      <path
         id="path12"
         d="m 2217.97,1155.88 h 113.34 c 57.12,0 97.73,-28.26 97.73,-78.4 0,-28.28 -14.28,-52.71 -38.38,-65.13 v -0.85 c 34.79,-9.86 51.33,-40.715 51.33,-71.559 0,-60.847 -50.88,-88.277 -109.35,-88.277 h -114.67 z m 113.34,-124.24 c 25,0 39.28,17.13 39.28,38.97 0,21.87 -13.4,37.71 -40.17,37.71 h -54.88 v -76.68 z m 5.8,-132.417 c 29.45,0 45.98,18.445 45.98,44.14 0,25.282 -16.96,43.707 -45.98,43.707 h -61.57 v -87.847 h 61.57"
         style="fill:#ef2e32;fill-opacity:1;fill-rule:nonzero;stroke:none"
         transform="matrix(0.13333333,0,0,-0.13333333,0,208.65333)" />
      <path
         id="path13"
         d="m 2680.38,1161.03 c 93.27,0 163.76,-68.14 163.76,-155.1 0,-89.559 -70.49,-159.407 -163.76,-159.407 -93.26,0 -163.75,69.848 -163.75,159.407 0,86.96 70.49,155.1 163.75,155.1 m 0,-263.944 c 58.01,0 104.41,46.277 104.41,108.844 0,59.99 -46.4,104.54 -104.41,104.54 -58,0 -104.4,-44.55 -104.4,-104.54 0,-62.567 46.4,-108.844 104.4,-108.844"
         style="fill:#ef2e32;fill-opacity:1;fill-rule:nonzero;stroke:none"
         transform="matrix(0.13333333,0,0,-0.13333333,0,208.65333)" />
      <path
         id="path14"
         d="m 2942.46,1155.88 h 57.55 l 120.07,-175.665 c 12.05,-17.563 26.31,-47.129 26.31,-47.129 h 0.91 c 0,0 -3.14,29.137 -3.14,47.129 v 175.665 h 57.12 V 851.664 h -57.12 l -120.03,175.246 c -12.05,17.58 -26.34,47.14 -26.34,47.14 h -0.88 c 0,0 3.1,-29.13 3.1,-47.14 V 851.664 h -57.55 v 304.216"
         style="fill:#ef2e32;fill-opacity:1;fill-rule:nonzero;stroke:none"
         transform="matrix(0.13333333,0,0,-0.13333333,0,208.65333)" />
      <path
         id="path15"
         d="m 3315.65,1155.88 h 57.57 l 120.03,-175.665 c 12.04,-17.563 26.32,-47.129 26.32,-47.129 h 0.88 c 0,0 -3.1,29.137 -3.1,47.129 v 175.665 h 57.1 V 851.664 h -57.1 L 3397.3,1026.91 c -12.05,17.58 -26.32,47.14 -26.32,47.14 h -0.9 c 0,0 3.14,-29.13 3.14,-47.14 V 851.664 h -57.57 v 304.216"
         style="fill:#ef2e32;fill-opacity:1;fill-rule:nonzero;stroke:none"
         transform="matrix(0.13333333,0,0,-0.13333333,0,208.65333)" />
      <path
         id="path16"
         d="M 3689.32,1155.88 V 851.66 h 196.79 v 47.578 h -139.2 v 81.832 h 106.61 v 47.56 h -106.61 v 79.69 h 132.06 v 47.56 h -189.65"
         style="fill:#ef2e32;fill-opacity:1;fill-rule:nonzero;stroke:none"
         transform="matrix(0.13333333,0,0,-0.13333333,0,208.65333)" />
      <path
         id="path17"
         d="m 1188.24,718.336 h 58.08 V 521.57 c 0,-41.09 27.94,-64.449 70.73,-64.449 42.78,0 71.15,23.359 71.15,64.879 v 196.336 h 58.11 V 521.57 c 0,-68.769 -51.78,-115.492 -128.81,-115.492 -77.47,0 -129.26,46.723 -129.26,115.492 v 196.766"
         style="fill:#ef2e32;fill-opacity:1;fill-rule:nonzero;stroke:none"
         transform="matrix(0.13333333,0,0,-0.13333333,0,208.65333)" />
      <path
         id="path18"
         d="m 1542.09,714.957 h 57.57 l 120.03,-175.668 c 12.05,-17.57 26.32,-47.129 26.32,-47.129 h 0.9 c 0,0 -3.12,29.129 -3.12,47.129 v 175.668 h 57.12 V 410.75 h -57.12 L 1623.76,586 c -12.07,17.559 -26.34,47.129 -26.34,47.129 h -0.88 c 0,0 3.12,-29.141 3.12,-47.129 V 410.75 h -57.57 v 304.207"
         style="fill:#ef2e32;fill-opacity:1;fill-rule:nonzero;stroke:none"
         transform="matrix(0.13333333,0,0,-0.13333333,0,208.65333)" />
      <path
         id="path19"
         d="m 1903.57,714.965 h 57.57 V 410.75 h -57.57 v 304.215"
         style="fill:#ef2e32;fill-opacity:1;fill-rule:nonzero;stroke:none"
         transform="matrix(0.13333333,0,0,-0.13333333,0,208.65333)" />
      <path
         id="path20"
         d="m 2023.18,714.957 h 62.03 l 69.6,-198.379 c 6.26,-17.558 11.61,-44.547 11.61,-44.547 h 1.34 c 0,0 5.81,26.989 12.04,44.547 l 70.06,198.379 h 61.6 L 2195.86,410.75 h -57.1 l -115.58,304.207"
         style="fill:#ef2e32;fill-opacity:1;fill-rule:nonzero;stroke:none"
         transform="matrix(0.13333333,0,0,-0.13333333,0,208.65333)" />
      <path
         id="path21"
         d="m 2373.51,714.957 h 189.65 v -47.551 h -132.08 v -79.695 h 106.65 V 540.148 H 2431.08 V 458.301 H 2570.3 V 410.75 h -196.79 v 304.207"
         style="fill:#ef2e32;fill-opacity:1;fill-rule:nonzero;stroke:none"
         transform="matrix(0.13333333,0,0,-0.13333333,0,208.65333)" />
      <path
         id="path22"
         d="m 2652.43,714.957 h 102.18 c 34.37,0 49.98,-2.57 63.83,-8.566 31.69,-13.711 51.76,-42.84 51.76,-83.106 0,-36.433 -20.07,-70.285 -53.56,-83.137 v -0.859 c 0,0 4.47,-4.289 10.73,-14.988 l 65.15,-113.551 h -64.27 l -62.91,113.551 h -55.33 V 410.75 h -57.58 z m 109.34,-142.668 c 30.79,0 49.98,17.559 49.98,47.988 0,29.133 -12.97,47.129 -58.02,47.129 h -43.72 v -95.117 h 51.76"
         style="fill:#ef2e32;fill-opacity:1;fill-rule:nonzero;stroke:none"
         transform="matrix(0.13333333,0,0,-0.13333333,0,208.65333)" />
      <path
         id="path23"
         d="m 2975.55,488.73 c 0,0 34.36,-32.14 78.99,-32.14 24.09,0 45.97,12 45.97,36.851 0,54.418 -149.5,45 -149.5,138.411 0,50.554 45.5,88.25 106.21,88.25 62.46,0 94.6,-32.567 94.6,-32.567 l -25,-44.98 c 0,0 -30.34,26.562 -70.05,26.562 -26.78,0 -47.76,-14.992 -47.76,-36.426 0,-53.976 149.05,-40.703 149.05,-137.961 0,-48.421 -38.38,-89.128 -104.43,-89.128 -70.5,0 -109.32,41.578 -109.32,41.578 l 31.24,41.55"
         style="fill:#ef2e32;fill-opacity:1;fill-rule:nonzero;stroke:none"
         transform="matrix(0.13333333,0,0,-0.13333333,0,208.65333)" />
      <path
         id="path24"
         d="m 3237.95,714.965 h 57.57 V 410.75 h -57.57 v 304.215"
         style="fill:#ef2e32;fill-opacity:1;fill-rule:nonzero;stroke:none"
         transform="matrix(0.13333333,0,0,-0.13333333,0,208.65333)" />
      <path
         id="path25"
         d="M 3463.77,667.398 H 3359.8 v 47.559 h 265.51 v -47.559 h -103.97 v -256.66 h -57.57 v 256.66"
         style="fill:#ef2e32;fill-opacity:1;fill-rule:nonzero;stroke:none"
         transform="matrix(0.13333333,0,0,-0.13333333,0,208.65333)" />
      <path
         id="path26"
         d="m 3798.48,793.375 -33.93,-58.262 h 45.54 l 46.86,58.262 z M 3689.59,714.957 V 410.738 h 196.8 v 47.582 h -139.23 v 81.828 h 106.67 v 47.563 h -106.67 v 79.687 h 132.08 v 47.559 h -189.65"
         style="fill:#ef2e32;fill-opacity:1;fill-rule:nonzero;stroke:none"
         transform="matrix(0.13333333,0,0,-0.13333333,0,208.65333)" />
    </g>
  </g>
</svg>
