<?xml version="1.0" encoding="utf-8"?>
<!-- Generator: Adobe Illustrator 16.0.0, SVG Export Plug-In . SVG Version: 6.00 Build 0)  -->
<!DOCTYPE svg PUBLIC "-//W3C//DTD SVG 1.1//EN" "http://www.w3.org/Graphics/SVG/1.1/DTD/svg11.dtd">
<svg version="1.1" id="Mode_Isolation" xmlns="http://www.w3.org/2000/svg" xmlns:xlink="http://www.w3.org/1999/xlink" x="0px"
	 y="0px" width="68px" height="44px" viewBox="0 0 68 44" enable-background="new 0 0 68 44" xml:space="preserve">
<g>
	<g>
		<g>
			<g>
				<g>
					<g>
						<rect x="0.504" y="0.609" fill="#FFDD00" width="66.791" height="42.716"/>
						<g id="Ombre_1_">
							<path fill="#7C7C7B" d="M21.926,9.697H2.77c-0.33,0-0.601,0.481-0.601,1.076v21.673c0,0.592,0.271,1.081,0.601,1.081h19.156
								c0.327,0,0.597-0.489,0.597-1.081V10.773C22.522,10.179,22.253,9.697,21.926,9.697z M18.027,25.78
								c-3.476,5.597-9.128,8.375-12.627,6.2c-3.495-2.174-3.514-8.471-0.04-14.066c3.479-5.597,9.132-8.371,12.628-6.196
								C21.486,13.888,21.506,20.185,18.027,25.78z"/>
							<g>
								<path fill="#7C7C7B" d="M13.062,19.374H9.67l0.586-2.994h10.271l-0.58,2.994H16.49l-1.986,10.54h-3.413L13.062,19.374z"/>
							</g>
						</g>
						<path id="Plak_VERTE_1_" fill="#006935" d="M65.995,0H1.999C0.899,0,0,0.899,0,1.995v40.007C0,43.101,0.899,44,1.999,44
							h63.996C67.102,44,68,43.101,68,42.002V1.995C68,0.899,67.102,0,65.995,0z M18.629,25.182
							c-3.476,5.597-9.127,8.373-12.626,6.195c-3.499-2.173-3.514-8.469-0.042-14.066c3.479-5.593,9.128-8.373,12.626-6.196
							C22.087,13.287,22.107,19.586,18.629,25.182z"/>
						<g id="TEXTE_1_">
							<g>
								<path fill="#FFFFFF" d="M13.663,18.775h-3.396l0.584-2.996h10.272l-0.584,2.996h-3.45l-1.986,10.538h-3.41L13.663,18.775z"
									/>
								<path fill="#FFFFFF" d="M27.63,28.729c-1.33,0.644-2.871,0.784-3.855,0.784c-2.911,0-4.496-1.504-4.496-4.257
									c0-3.012,2.171-6.042,5.878-6.042c2.069,0,3.675,1.121,3.675,3.132c0,2.467-2.245,3.491-6.302,3.374
									c0.039,0.22,0.164,0.465,0.342,0.64c0.381,0.345,0.981,0.52,1.768,0.52c0.999,0,1.947-0.196,2.788-0.599L27.63,28.729z
									 M25.638,22.329c0-0.342-0.32-0.645-0.879-0.645c-1.223,0-1.826,0.924-1.93,1.568c2.09,0.021,2.809-0.282,2.809-0.906
									V22.329z"/>
								<path fill="#FFFFFF" d="M29.796,29.313l2.728-14.255h3.412l-2.73,14.255H29.796z"/>
								<path fill="#FFFFFF" d="M35.813,29.313l1.208-6.502c0.239-1.328,0.399-2.453,0.519-3.378h2.931l-0.137,1.51h0.017
									c0.904-1.227,2.089-1.729,3.334-1.729c1.604,0,2.266,1.022,2.345,1.729c0.887-1.206,2.109-1.729,3.293-1.729
									c1.708,0,2.428,1.081,2.428,2.67c0,0.401-0.082,1.226-0.182,1.711l-1.04,5.718h-3.313l0.964-5.278
									c0.062-0.385,0.124-0.782,0.124-1.146c0-0.543-0.265-0.947-0.749-0.947c-0.86,0-1.624,1.248-1.965,3.158l-0.801,4.213
									h-3.271l0.981-5.278c0.062-0.385,0.121-0.761,0.121-1.085c0-0.604-0.197-1.008-0.703-1.008
									c-0.861,0-1.686,1.265-2.023,3.158l-0.768,4.213H35.813z"/>
								<path fill="#FFFFFF" d="M59.561,29.313c0.036-0.562,0.077-1.144,0.099-1.706h-0.063c-0.843,1.466-2.068,1.928-3.111,1.928
									c-1.768,0-3.048-1.365-3.048-3.518c0-3.291,2.085-6.803,7.187-6.803c1.261,0,2.626,0.259,3.51,0.542l-1.064,5.182
									c-0.198,1.058-0.421,3.092-0.382,4.375H59.561z M60.301,21.841c-0.22-0.039-0.462-0.057-0.642-0.057
									c-1.586,0-2.649,2.145-2.649,3.596c0,0.922,0.401,1.4,0.982,1.4c0.621,0,1.465-0.618,1.886-2.946L60.301,21.841z"/>
							</g>
						</g>
					</g>
				</g>
			</g>
		</g>
	</g>
</g>
</svg>
